<svg xmlns="http://www.w3.org/2000/svg" width="824" height="839" viewBox="0 0 824 839" role="img" aria-labelledby="title">
  <title id="title">AEGIS tri-spire monogram</title>
  <defs>
    <linearGradient id="aegisGold" x1="0" y1="0" x2="1" y2="1">
      <stop offset="0%" stop-color="#E4C06A"/>
      <stop offset="50%" stop-color="#C9A256"/>
      <stop offset="100%" stop-color="#A97C2D"/>
    </linearGradient>
  </defs>
  <path d="M 414.0 18.0 L 412.0 19.0 L 410.0 24.0 L 410.0 27.0 L 405.0 42.0 L 404.0 49.0 L 401.0 56.0 L 400.0 63.0 L 398.0 67.0 L 398.0 70.0 L 396.0 74.0 L 396.0 77.0 L 394.0 81.0 L 394.0 84.0 L 392.0 88.0 L 392.0 91.0 L 390.0 95.0 L 390.0 98.0 L 388.0 102.0 L 388.0 105.0 L 386.0 109.0 L 386.0 112.0 L 380.0 130.0 L 379.0 137.0 L 377.0 141.0 L 374.0 155.0 L 367.0 176.0 L 367.0 180.0 L 362.0 194.0 L 360.0 205.0 L 357.0 212.0 L 357.0 215.0 L 353.0 226.0 L 352.0 233.0 L 349.0 240.0 L 347.0 251.0 L 345.0 255.0 L 345.0 258.0 L 339.0 276.0 L 338.0 283.0 L 332.0 301.0 L 330.0 312.0 L 326.0 323.0 L 325.0 330.0 L 321.0 341.0 L 321.0 344.0 L 316.0 359.0 L 316.0 362.0 L 314.0 366.0 L 314.0 369.0 L 311.0 376.0 L 309.0 387.0 L 307.0 391.0 L 307.0 394.0 L 305.0 398.0 L 305.0 401.0 L 301.0 413.0 L 301.0 416.0 L 299.0 420.0 L 298.0 427.0 L 295.0 434.0 L 294.0 441.0 L 288.0 459.0 L 288.0 462.0 L 285.0 470.0 L 284.0 477.0 L 281.0 484.0 L 279.0 495.0 L 275.0 506.0 L 274.0 513.0 L 270.0 524.0 L 270.0 527.0 L 269.0 528.0 L 269.0 531.0 L 268.0 532.0 L 268.0 535.0 L 266.0 539.0 L 265.0 545.0 L 263.0 546.0 L 261.0 544.0 L 260.0 541.0 L 260.0 538.0 L 258.0 534.0 L 258.0 531.0 L 256.0 527.0 L 254.0 517.0 L 249.0 503.0 L 248.0 496.0 L 244.0 486.0 L 244.0 483.0 L 242.0 479.0 L 242.0 476.0 L 240.0 472.0 L 240.0 469.0 L 234.0 451.0 L 233.0 444.0 L 226.0 423.0 L 224.0 412.0 L 216.0 388.0 L 216.0 385.0 L 212.0 373.0 L 212.0 370.0 L 210.0 366.0 L 210.0 363.0 L 205.0 349.0 L 204.0 342.0 L 197.0 321.0 L 195.0 311.0 L 192.0 310.0 L 189.0 319.0 L 189.0 322.0 L 186.0 329.0 L 183.0 343.0 L 181.0 347.0 L 180.0 354.0 L 175.0 368.0 L 174.0 375.0 L 171.0 382.0 L 171.0 385.0 L 166.0 400.0 L 166.0 403.0 L 163.0 410.0 L 163.0 413.0 L 157.0 431.0 L 155.0 442.0 L 152.0 449.0 L 149.0 463.0 L 142.0 484.0 L 141.0 491.0 L 137.0 501.0 L 135.0 512.0 L 132.0 519.0 L 132.0 522.0 L 127.0 536.0 L 124.0 550.0 L 121.0 557.0 L 121.0 560.0 L 119.0 564.0 L 117.0 574.0 L 114.0 581.0 L 114.0 584.0 L 112.0 588.0 L 112.0 591.0 L 106.0 609.0 L 105.0 616.0 L 98.0 637.0 L 98.0 640.0 L 94.0 651.0 L 93.0 658.0 L 88.0 672.0 L 87.0 679.0 L 84.0 686.0 L 83.0 693.0 L 80.0 700.0 L 79.0 707.0 L 76.0 714.0 L 76.0 717.0 L 74.0 721.0 L 74.0 724.0 L 72.0 728.0 L 72.0 731.0 L 70.0 735.0 L 68.0 745.0 L 65.0 752.0 L 64.0 759.0 L 61.0 766.0 L 60.0 773.0 L 58.0 777.0 L 58.0 780.0 L 56.0 784.0 L 56.0 787.0 L 54.0 793.0 L 51.0 796.0 L 20.0 811.0 L 18.0 813.0 L 18.0 819.0 L 19.0 820.0 L 125.0 820.0 L 125.0 812.0 L 114.0 806.0 L 112.0 806.0 L 100.0 799.0 L 94.0 797.0 L 92.0 795.0 L 92.0 792.0 L 94.0 788.0 L 94.0 785.0 L 96.0 781.0 L 98.0 771.0 L 102.0 761.0 L 104.0 750.0 L 107.0 743.0 L 107.0 740.0 L 113.0 722.0 L 114.0 715.0 L 118.0 705.0 L 118.0 702.0 L 122.0 690.0 L 122.0 687.0 L 125.0 680.0 L 125.0 677.0 L 127.0 673.0 L 127.0 670.0 L 129.0 666.0 L 131.0 656.0 L 134.0 649.0 L 134.0 646.0 L 136.0 642.0 L 136.0 639.0 L 138.0 635.0 L 138.0 632.0 L 144.0 614.0 L 145.0 607.0 L 149.0 597.0 L 150.0 590.0 L 152.0 586.0 L 152.0 583.0 L 154.0 579.0 L 156.0 569.0 L 159.0 562.0 L 159.0 559.0 L 164.0 544.0 L 164.0 541.0 L 166.0 537.0 L 166.0 534.0 L 169.0 527.0 L 170.0 520.0 L 172.0 516.0 L 172.0 513.0 L 174.0 509.0 L 174.0 506.0 L 176.0 502.0 L 178.0 492.0 L 182.0 482.0 L 182.0 479.0 L 184.0 475.0 L 184.0 472.0 L 186.0 468.0 L 186.0 465.0 L 192.0 447.0 L 195.0 449.0 L 197.0 459.0 L 203.0 476.0 L 206.0 490.0 L 210.0 500.0 L 211.0 507.0 L 213.0 511.0 L 213.0 514.0 L 215.0 518.0 L 215.0 521.0 L 217.0 525.0 L 217.0 528.0 L 221.0 539.0 L 222.0 546.0 L 225.0 553.0 L 225.0 557.0 L 227.0 561.0 L 230.0 575.0 L 233.0 582.0 L 233.0 585.0 L 235.0 589.0 L 237.0 600.0 L 240.0 607.0 L 240.0 610.0 L 242.0 614.0 L 242.0 617.0 L 245.0 626.0 L 241.0 638.0 L 241.0 641.0 L 237.0 653.0 L 237.0 656.0 L 235.0 660.0 L 233.0 671.0 L 229.0 682.0 L 228.0 689.0 L 226.0 693.0 L 226.0 696.0 L 220.0 714.0 L 219.0 721.0 L 217.0 725.0 L 217.0 729.0 L 210.0 750.0 L 209.0 757.0 L 207.0 761.0 L 207.0 764.0 L 203.0 776.0 L 202.0 783.0 L 199.0 790.0 L 199.0 793.0 L 188.0 800.0 L 186.0 800.0 L 173.0 807.0 L 171.0 807.0 L 162.0 812.0 L 162.0 819.0 L 163.0 820.0 L 255.0 820.0 L 255.0 811.0 L 251.0 807.0 L 241.0 800.0 L 236.0 794.0 L 242.0 776.0 L 245.0 762.0 L 248.0 755.0 L 250.0 744.0 L 253.0 737.0 L 253.0 734.0 L 258.0 719.0 L 258.0 716.0 L 260.0 713.0 L 261.0 706.0 L 263.0 702.0 L 265.0 703.0 L 265.0 706.0 L 270.0 720.0 L 270.0 723.0 L 275.0 737.0 L 276.0 744.0 L 278.0 748.0 L 278.0 751.0 L 280.0 755.0 L 280.0 758.0 L 283.0 765.0 L 283.0 768.0 L 286.0 775.0 L 286.0 779.0 L 291.0 794.0 L 288.0 798.0 L 271.0 811.0 L 271.0 819.0 L 272.0 820.0 L 364.0 820.0 L 365.0 819.0 L 365.0 812.0 L 358.0 808.0 L 356.0 808.0 L 332.0 796.0 L 329.0 793.0 L 328.0 787.0 L 326.0 783.0 L 326.0 780.0 L 323.0 773.0 L 320.0 758.0 L 317.0 751.0 L 316.0 744.0 L 314.0 741.0 L 313.0 734.0 L 309.0 723.0 L 309.0 720.0 L 304.0 705.0 L 303.0 698.0 L 299.0 688.0 L 299.0 684.0 L 296.0 677.0 L 293.0 663.0 L 291.0 659.0 L 288.0 645.0 L 286.0 641.0 L 285.0 634.0 L 283.0 630.0 L 283.0 622.0 L 285.0 618.0 L 285.0 615.0 L 288.0 607.0 L 290.0 596.0 L 293.0 589.0 L 293.0 586.0 L 295.0 582.0 L 295.0 579.0 L 298.0 571.0 L 299.0 564.0 L 303.0 553.0 L 304.0 546.0 L 306.0 542.0 L 306.0 539.0 L 310.0 527.0 L 310.0 524.0 L 312.0 520.0 L 315.0 505.0 L 321.0 487.0 L 321.0 483.0 L 327.0 465.0 L 329.0 454.0 L 332.0 447.0 L 332.0 444.0 L 335.0 436.0 L 336.0 429.0 L 338.0 425.0 L 339.0 418.0 L 342.0 411.0 L 342.0 408.0 L 346.0 396.0 L 348.0 385.0 L 350.0 381.0 L 350.0 378.0 L 352.0 374.0 L 352.0 371.0 L 354.0 367.0 L 354.0 364.0 L 360.0 346.0 L 360.0 343.0 L 363.0 335.0 L 364.0 328.0 L 366.0 324.0 L 368.0 313.0 L 374.0 295.0 L 376.0 284.0 L 383.0 263.0 L 383.0 260.0 L 387.0 248.0 L 387.0 245.0 L 389.0 241.0 L 390.0 234.0 L 393.0 227.0 L 393.0 224.0 L 397.0 212.0 L 398.0 205.0 L 401.0 198.0 L 403.0 187.0 L 412.0 160.0 L 414.0 161.0 L 414.0 164.0 L 420.0 182.0 L 420.0 186.0 L 422.0 190.0 L 423.0 197.0 L 427.0 207.0 L 427.0 210.0 L 430.0 218.0 L 431.0 225.0 L 433.0 229.0 L 435.0 240.0 L 438.0 247.0 L 438.0 250.0 L 442.0 262.0 L 443.0 269.0 L 445.0 273.0 L 448.0 287.0 L 454.0 305.0 L 455.0 312.0 L 457.0 316.0 L 460.0 330.0 L 462.0 334.0 L 465.0 348.0 L 467.0 352.0 L 470.0 366.0 L 472.0 370.0 L 474.0 381.0 L 476.0 385.0 L 476.0 388.0 L 482.0 406.0 L 482.0 410.0 L 488.0 428.0 L 490.0 439.0 L 493.0 446.0 L 494.0 453.0 L 498.0 464.0 L 498.0 467.0 L 501.0 475.0 L 502.0 482.0 L 504.0 486.0 L 505.0 493.0 L 507.0 497.0 L 508.0 504.0 L 514.0 522.0 L 514.0 525.0 L 519.0 540.0 L 521.0 551.0 L 524.0 558.0 L 527.0 573.0 L 531.0 583.0 L 532.0 591.0 L 535.0 598.0 L 535.0 601.0 L 537.0 605.0 L 538.0 612.0 L 542.0 624.0 L 542.0 629.0 L 540.0 633.0 L 538.0 644.0 L 535.0 651.0 L 534.0 658.0 L 532.0 662.0 L 532.0 665.0 L 526.0 683.0 L 524.0 694.0 L 521.0 701.0 L 520.0 708.0 L 517.0 715.0 L 517.0 718.0 L 511.0 736.0 L 508.0 750.0 L 505.0 757.0 L 502.0 771.0 L 498.0 781.0 L 496.0 792.0 L 494.0 795.0 L 486.0 799.0 L 484.0 799.0 L 482.0 801.0 L 470.0 807.0 L 468.0 807.0 L 462.0 811.0 L 460.0 811.0 L 459.0 812.0 L 459.0 819.0 L 460.0 820.0 L 552.0 820.0 L 552.0 810.0 L 537.0 799.0 L 533.0 794.0 L 535.0 790.0 L 535.0 787.0 L 537.0 783.0 L 538.0 776.0 L 541.0 769.0 L 541.0 766.0 L 543.0 762.0 L 543.0 759.0 L 545.0 755.0 L 545.0 752.0 L 547.0 748.0 L 549.0 738.0 L 552.0 731.0 L 555.0 717.0 L 557.0 714.0 L 558.0 707.0 L 560.0 703.0 L 561.0 703.0 L 563.0 706.0 L 563.0 709.0 L 569.0 727.0 L 570.0 734.0 L 572.0 738.0 L 572.0 741.0 L 575.0 748.0 L 578.0 762.0 L 580.0 766.0 L 581.0 773.0 L 583.0 777.0 L 584.0 784.0 L 587.0 791.0 L 587.0 796.0 L 568.0 811.0 L 568.0 819.0 L 569.0 820.0 L 661.0 820.0 L 662.0 819.0 L 662.0 812.0 L 661.0 811.0 L 655.0 809.0 L 627.0 795.0 L 625.0 793.0 L 622.0 778.0 L 620.0 774.0 L 620.0 771.0 L 615.0 756.0 L 613.0 745.0 L 609.0 734.0 L 608.0 727.0 L 604.0 716.0 L 603.0 709.0 L 601.0 705.0 L 600.0 698.0 L 598.0 694.0 L 598.0 691.0 L 596.0 687.0 L 593.0 673.0 L 591.0 669.0 L 588.0 654.0 L 585.0 647.0 L 583.0 636.0 L 580.0 628.0 L 580.0 624.0 L 584.0 612.0 L 585.0 604.0 L 587.0 601.0 L 588.0 594.0 L 590.0 590.0 L 590.0 587.0 L 593.0 579.0 L 594.0 572.0 L 596.0 568.0 L 596.0 565.0 L 602.0 547.0 L 603.0 540.0 L 608.0 526.0 L 609.0 519.0 L 614.0 505.0 L 615.0 498.0 L 622.0 477.0 L 622.0 474.0 L 624.0 470.0 L 624.0 467.0 L 626.0 463.0 L 628.0 453.0 L 631.0 447.0 L 633.0 448.0 L 637.0 465.0 L 641.0 475.0 L 642.0 482.0 L 645.0 489.0 L 645.0 492.0 L 647.0 496.0 L 649.0 506.0 L 657.0 530.0 L 657.0 533.0 L 662.0 548.0 L 662.0 551.0 L 664.0 555.0 L 665.0 562.0 L 668.0 569.0 L 668.0 572.0 L 670.0 576.0 L 670.0 579.0 L 676.0 597.0 L 677.0 604.0 L 683.0 622.0 L 684.0 629.0 L 687.0 636.0 L 687.0 639.0 L 689.0 643.0 L 689.0 646.0 L 695.0 664.0 L 695.0 667.0 L 700.0 682.0 L 701.0 689.0 L 704.0 696.0 L 704.0 699.0 L 706.0 703.0 L 708.0 713.0 L 711.0 720.0 L 711.0 723.0 L 713.0 727.0 L 713.0 730.0 L 719.0 748.0 L 720.0 755.0 L 722.0 758.0 L 722.0 761.0 L 725.0 768.0 L 726.0 775.0 L 732.0 793.0 L 731.0 796.0 L 701.0 811.0 L 699.0 811.0 L 698.0 812.0 L 698.0 820.0 L 804.0 820.0 L 805.0 819.0 L 805.0 812.0 L 770.0 794.0 L 768.0 788.0 L 768.0 785.0 L 767.0 784.0 L 767.0 781.0 L 766.0 780.0 L 766.0 777.0 L 764.0 773.0 L 764.0 770.0 L 758.0 752.0 L 758.0 749.0 L 751.0 728.0 L 750.0 721.0 L 745.0 707.0 L 745.0 704.0 L 740.0 689.0 L 740.0 686.0 L 737.0 679.0 L 737.0 676.0 L 734.0 668.0 L 733.0 661.0 L 730.0 654.0 L 730.0 651.0 L 724.0 633.0 L 723.0 626.0 L 720.0 619.0 L 719.0 612.0 L 717.0 608.0 L 717.0 605.0 L 715.0 601.0 L 715.0 598.0 L 713.0 594.0 L 713.0 591.0 L 710.0 584.0 L 709.0 577.0 L 707.0 573.0 L 707.0 570.0 L 705.0 566.0 L 705.0 563.0 L 699.0 545.0 L 698.0 538.0 L 693.0 524.0 L 691.0 513.0 L 689.0 509.0 L 686.0 495.0 L 679.0 474.0 L 678.0 467.0 L 675.0 460.0 L 675.0 457.0 L 672.0 449.0 L 671.0 442.0 L 668.0 435.0 L 667.0 428.0 L 664.0 421.0 L 663.0 414.0 L 660.0 407.0 L 657.0 393.0 L 654.0 386.0 L 652.0 375.0 L 650.0 371.0 L 647.0 357.0 L 642.0 343.0 L 642.0 340.0 L 638.0 328.0 L 637.0 321.0 L 635.0 317.0 L 634.0 310.0 L 631.0 310.0 L 629.0 315.0 L 628.0 322.0 L 623.0 335.0 L 620.0 349.0 L 617.0 356.0 L 617.0 359.0 L 615.0 363.0 L 613.0 373.0 L 610.0 380.0 L 609.0 387.0 L 602.0 408.0 L 601.0 415.0 L 598.0 422.0 L 597.0 429.0 L 595.0 433.0 L 595.0 436.0 L 593.0 440.0 L 593.0 443.0 L 591.0 447.0 L 589.0 457.0 L 586.0 464.0 L 586.0 467.0 L 580.0 485.0 L 580.0 488.0 L 577.0 495.0 L 575.0 505.0 L 572.0 512.0 L 571.0 519.0 L 565.0 536.0 L 563.0 546.0 L 561.0 547.0 L 559.0 544.0 L 559.0 541.0 L 555.0 529.0 L 554.0 522.0 L 552.0 518.0 L 552.0 515.0 L 548.0 504.0 L 547.0 497.0 L 543.0 486.0 L 542.0 479.0 L 540.0 475.0 L 538.0 464.0 L 536.0 460.0 L 536.0 457.0 L 530.0 439.0 L 529.0 432.0 L 527.0 428.0 L 526.0 421.0 L 522.0 410.0 L 522.0 407.0 L 518.0 395.0 L 518.0 392.0 L 516.0 388.0 L 515.0 381.0 L 508.0 360.0 L 505.0 345.0 L 502.0 338.0 L 502.0 335.0 L 498.0 323.0 L 496.0 312.0 L 494.0 308.0 L 493.0 301.0 L 490.0 294.0 L 487.0 280.0 L 481.0 262.0 L 479.0 251.0 L 475.0 240.0 L 473.0 229.0 L 470.0 222.0 L 470.0 219.0 L 465.0 204.0 L 464.0 197.0 L 461.0 190.0 L 459.0 179.0 L 457.0 175.0 L 457.0 172.0 L 452.0 157.0 L 452.0 154.0 L 449.0 146.0 L 448.0 139.0 L 442.0 121.0 L 441.0 114.0 L 438.0 107.0 L 437.0 100.0 L 435.0 96.0 L 435.0 93.0 L 433.0 89.0 L 431.0 79.0 L 426.0 65.0 L 424.0 54.0 L 422.0 50.0 L 422.0 47.0 L 421.0 46.0 L 421.0 43.0 L 420.0 42.0 L 420.0 39.0 L 419.0 38.0 L 419.0 35.0 L 417.0 31.0 L 417.0 28.0 L 416.0 27.0 L 416.0 24.0 Z" fill="url(#aegisGold)" fill-rule="evenodd"/>
</svg>
