<svg xmlns="http://www.w3.org/2000/svg" width="1734" height="371" viewBox="0 0 1734 371" role="img" aria-labelledby="title">
  <title id="title">AEGIS Strategic Wealth Architecture logo</title>
  <defs>
    <linearGradient id="aegisGold" x1="0" y1="0" x2="1" y2="1">
      <stop offset="0%" stop-color="#E4C06A"/>
      <stop offset="50%" stop-color="#C9A256"/>
      <stop offset="100%" stop-color="#A97C2D"/>
    </linearGradient>
  </defs>
  <path d="M 624.0 326.0 L 626.0 326.0 L 629.0 331.0 L 629.0 333.0 L 631.0 336.0 L 630.0 338.0 L 621.0 338.0 L 620.0 337.0 L 621.0 332.0 Z
    M 1189.0 325.0 L 1191.0 326.0 L 1192.0 330.0 L 1194.0 333.0 L 1194.0 335.0 L 1195.0 336.0 L 1194.0 338.0 L 1185.0 338.0 L 1184.0 337.0 L 1185.0 333.0 L 1187.0 330.0 L 1187.0 328.0 Z
    M 997.0 325.0 L 999.0 326.0 L 1000.0 330.0 L 1002.0 333.0 L 1002.0 335.0 L 1003.0 336.0 L 1002.0 338.0 L 993.0 338.0 L 992.0 337.0 L 992.0 335.0 Z
    M 1603.0 322.0 L 1604.0 321.0 L 1613.0 321.0 L 1615.0 322.0 L 1618.0 325.0 L 1618.0 330.0 L 1615.0 333.0 L 1604.0 333.0 L 1603.0 332.0 Z
    M 1227.0 323.0 L 1229.0 321.0 L 1237.0 321.0 L 1238.0 322.0 L 1240.0 322.0 L 1242.0 324.0 L 1243.0 328.0 L 1239.0 333.0 L 1228.0 333.0 L 1227.0 332.0 Z
    M 573.0 322.0 L 574.0 321.0 L 583.0 321.0 L 585.0 322.0 L 588.0 325.0 L 588.0 330.0 L 585.0 333.0 L 574.0 333.0 L 573.0 332.0 Z
    M 130.0 320.0 L 132.0 321.0 L 132.0 323.0 L 134.0 326.0 L 134.0 328.0 L 137.0 335.0 L 137.0 337.0 L 136.0 338.0 L 125.0 338.0 L 124.0 337.0 L 128.0 323.0 Z
    M 279.0 319.0 L 281.0 320.0 L 281.0 322.0 L 282.0 323.0 L 282.0 325.0 L 283.0 326.0 L 283.0 328.0 L 286.0 335.0 L 286.0 337.0 L 285.0 338.0 L 274.0 338.0 L 273.0 337.0 L 273.0 335.0 L 274.0 334.0 L 274.0 332.0 L 275.0 331.0 L 275.0 329.0 L 276.0 328.0 L 276.0 326.0 Z
    M 1697.0 318.0 L 1697.0 333.0 L 1698.0 334.0 L 1700.0 333.0 L 1700.0 327.0 L 1701.0 326.0 L 1703.0 327.0 L 1705.0 331.0 L 1706.0 331.0 L 1708.0 329.0 L 1708.0 328.0 L 1710.0 326.0 L 1711.0 326.0 L 1712.0 327.0 L 1712.0 334.0 L 1714.0 334.0 L 1715.0 332.0 L 1715.0 329.0 L 1714.0 328.0 L 1714.0 318.0 L 1713.0 318.0 L 1710.0 321.0 L 1710.0 322.0 L 1706.0 327.0 L 1704.0 326.0 L 1700.0 318.0 Z
    M 1679.0 318.0 L 1679.0 320.0 L 1683.0 320.0 L 1684.0 321.0 L 1684.0 334.0 L 1686.0 334.0 L 1686.0 321.0 L 1687.0 320.0 L 1691.0 320.0 L 1691.0 318.0 Z
    M 1644.0 318.0 L 1643.0 319.0 L 1643.0 347.0 L 1644.0 348.0 L 1663.0 348.0 L 1665.0 346.0 L 1664.0 345.0 L 1648.0 345.0 L 1647.0 344.0 L 1647.0 335.0 L 1648.0 334.0 L 1661.0 334.0 L 1661.0 331.0 L 1649.0 331.0 L 1647.0 329.0 L 1647.0 323.0 L 1649.0 321.0 L 1663.0 321.0 L 1663.0 319.0 L 1662.0 318.0 Z
    M 1600.0 318.0 L 1599.0 319.0 L 1599.0 347.0 L 1600.0 348.0 L 1602.0 348.0 L 1603.0 347.0 L 1603.0 338.0 L 1604.0 337.0 L 1611.0 337.0 L 1614.0 340.0 L 1615.0 343.0 L 1619.0 348.0 L 1623.0 348.0 L 1623.0 347.0 L 1617.0 339.0 L 1617.0 336.0 L 1619.0 334.0 L 1620.0 334.0 L 1622.0 331.0 L 1622.0 324.0 L 1621.0 322.0 L 1619.0 320.0 L 1617.0 319.0 L 1614.0 319.0 L 1613.0 318.0 Z
    M 1553.0 318.0 L 1553.0 340.0 L 1555.0 344.0 L 1557.0 346.0 L 1561.0 348.0 L 1568.0 348.0 L 1569.0 347.0 L 1573.0 346.0 L 1575.0 344.0 L 1577.0 340.0 L 1577.0 318.0 L 1574.0 318.0 L 1573.0 319.0 L 1573.0 340.0 L 1567.0 345.0 L 1562.0 345.0 L 1557.0 340.0 L 1557.0 319.0 L 1556.0 318.0 Z
    M 1510.0 318.0 L 1510.0 321.0 L 1511.0 322.0 L 1519.0 322.0 L 1520.0 323.0 L 1520.0 348.0 L 1523.0 348.0 L 1524.0 347.0 L 1524.0 341.0 L 1523.0 340.0 L 1523.0 328.0 L 1524.0 327.0 L 1524.0 322.0 L 1525.0 321.0 L 1533.0 321.0 L 1533.0 318.0 Z
    M 1473.0 320.0 L 1468.0 325.0 L 1467.0 329.0 L 1466.0 330.0 L 1466.0 337.0 L 1468.0 341.0 L 1470.0 343.0 L 1470.0 344.0 L 1478.0 348.0 L 1484.0 348.0 L 1485.0 347.0 L 1488.0 347.0 L 1490.0 346.0 L 1492.0 344.0 L 1492.0 343.0 L 1490.0 341.0 L 1488.0 343.0 L 1484.0 345.0 L 1479.0 345.0 L 1475.0 343.0 L 1471.0 338.0 L 1470.0 331.0 L 1471.0 330.0 L 1471.0 328.0 L 1477.0 322.0 L 1483.0 321.0 L 1484.0 322.0 L 1488.0 323.0 L 1490.0 325.0 L 1492.0 323.0 L 1492.0 322.0 L 1490.0 320.0 L 1486.0 319.0 L 1485.0 318.0 L 1478.0 318.0 L 1477.0 319.0 Z
    M 1427.0 318.0 L 1426.0 319.0 L 1426.0 323.0 L 1427.0 324.0 L 1427.0 328.0 L 1426.0 329.0 L 1426.0 333.0 L 1427.0 334.0 L 1427.0 337.0 L 1426.0 338.0 L 1426.0 344.0 L 1427.0 345.0 L 1427.0 348.0 L 1447.0 348.0 L 1448.0 347.0 L 1448.0 345.0 L 1432.0 345.0 L 1431.0 344.0 L 1431.0 341.0 L 1430.0 340.0 L 1430.0 336.0 L 1432.0 334.0 L 1445.0 334.0 L 1445.0 332.0 L 1444.0 331.0 L 1432.0 331.0 L 1430.0 329.0 L 1430.0 323.0 L 1432.0 321.0 L 1447.0 321.0 L 1447.0 318.0 Z
    M 1383.0 318.0 L 1383.0 321.0 L 1392.0 321.0 L 1393.0 322.0 L 1393.0 348.0 L 1396.0 348.0 L 1397.0 347.0 L 1397.0 322.0 L 1398.0 321.0 L 1406.0 321.0 L 1407.0 319.0 L 1406.0 318.0 Z
    M 1360.0 318.0 L 1359.0 319.0 L 1359.0 347.0 L 1360.0 348.0 L 1363.0 348.0 L 1363.0 318.0 Z
    M 1313.0 318.0 L 1313.0 337.0 L 1312.0 338.0 L 1312.0 341.0 L 1313.0 342.0 L 1313.0 348.0 L 1316.0 348.0 L 1316.0 342.0 L 1317.0 341.0 L 1316.0 339.0 L 1316.0 336.0 L 1318.0 334.0 L 1332.0 334.0 L 1333.0 335.0 L 1333.0 347.0 L 1334.0 348.0 L 1337.0 348.0 L 1337.0 318.0 L 1334.0 318.0 L 1333.0 319.0 L 1333.0 330.0 L 1332.0 331.0 L 1318.0 331.0 L 1316.0 329.0 L 1316.0 326.0 L 1317.0 325.0 L 1317.0 319.0 L 1316.0 318.0 Z
    M 1278.0 318.0 L 1277.0 319.0 L 1273.0 320.0 L 1268.0 324.0 L 1267.0 328.0 L 1266.0 329.0 L 1266.0 338.0 L 1268.0 342.0 L 1272.0 346.0 L 1276.0 347.0 L 1277.0 348.0 L 1284.0 348.0 L 1291.0 345.0 L 1292.0 344.0 L 1292.0 342.0 L 1291.0 341.0 L 1289.0 341.0 L 1284.0 345.0 L 1278.0 345.0 L 1276.0 344.0 L 1270.0 337.0 L 1270.0 330.0 L 1271.0 329.0 L 1271.0 327.0 L 1275.0 323.0 L 1279.0 321.0 L 1283.0 321.0 L 1284.0 322.0 L 1286.0 322.0 L 1289.0 325.0 L 1290.0 325.0 L 1292.0 323.0 L 1292.0 322.0 L 1284.0 318.0 Z
    M 1224.0 318.0 L 1223.0 319.0 L 1223.0 347.0 L 1224.0 348.0 L 1227.0 348.0 L 1227.0 338.0 L 1228.0 337.0 L 1235.0 337.0 L 1237.0 339.0 L 1238.0 342.0 L 1241.0 345.0 L 1241.0 346.0 L 1243.0 348.0 L 1246.0 348.0 L 1247.0 347.0 L 1241.0 339.0 L 1241.0 336.0 L 1246.0 332.0 L 1246.0 330.0 L 1247.0 329.0 L 1246.0 323.0 L 1242.0 319.0 L 1240.0 319.0 L 1239.0 318.0 Z
    M 1188.0 318.0 L 1186.0 321.0 L 1184.0 328.0 L 1181.0 333.0 L 1181.0 335.0 L 1175.0 347.0 L 1176.0 348.0 L 1178.0 348.0 L 1183.0 341.0 L 1197.0 341.0 L 1199.0 344.0 L 1199.0 346.0 L 1201.0 348.0 L 1203.0 348.0 L 1204.0 347.0 L 1202.0 344.0 L 1200.0 337.0 L 1196.0 330.0 L 1196.0 328.0 L 1191.0 318.0 Z
    M 1107.0 318.0 L 1106.0 319.0 L 1106.0 347.0 L 1107.0 348.0 L 1109.0 348.0 L 1110.0 347.0 L 1110.0 335.0 L 1111.0 334.0 L 1126.0 334.0 L 1127.0 335.0 L 1127.0 347.0 L 1128.0 348.0 L 1130.0 348.0 L 1131.0 347.0 L 1131.0 319.0 L 1130.0 318.0 L 1128.0 318.0 L 1127.0 319.0 L 1127.0 330.0 L 1126.0 331.0 L 1111.0 331.0 L 1110.0 330.0 L 1110.0 318.0 Z
    M 1064.0 318.0 L 1063.0 319.0 L 1063.0 321.0 L 1072.0 321.0 L 1073.0 322.0 L 1073.0 348.0 L 1076.0 348.0 L 1077.0 347.0 L 1077.0 322.0 L 1078.0 321.0 L 1086.0 321.0 L 1086.0 318.0 Z
    M 1032.0 318.0 L 1032.0 348.0 L 1050.0 348.0 L 1051.0 347.0 L 1051.0 345.0 L 1037.0 345.0 L 1036.0 344.0 L 1036.0 332.0 L 1035.0 331.0 L 1035.0 320.0 L 1036.0 319.0 L 1035.0 318.0 Z
    M 996.0 318.0 L 994.0 321.0 L 993.0 326.0 L 989.0 333.0 L 989.0 335.0 L 985.0 342.0 L 984.0 348.0 L 986.0 348.0 L 991.0 341.0 L 1004.0 341.0 L 1009.0 348.0 L 1012.0 348.0 L 1012.0 346.0 L 1007.0 337.0 L 1007.0 335.0 L 1004.0 330.0 L 1004.0 328.0 L 1002.0 325.0 L 1002.0 323.0 L 999.0 318.0 Z
    M 945.0 318.0 L 944.0 319.0 L 944.0 348.0 L 965.0 348.0 L 965.0 345.0 L 949.0 345.0 L 948.0 344.0 L 948.0 335.0 L 949.0 334.0 L 962.0 334.0 L 962.0 331.0 L 949.0 331.0 L 948.0 330.0 L 948.0 322.0 L 949.0 321.0 L 964.0 321.0 L 964.0 318.0 Z
    M 883.0 318.0 L 883.0 320.0 L 886.0 327.0 L 886.0 330.0 L 887.0 331.0 L 887.0 333.0 L 888.0 334.0 L 892.0 348.0 L 895.0 348.0 L 896.0 347.0 L 896.0 345.0 L 897.0 344.0 L 897.0 342.0 L 898.0 341.0 L 898.0 339.0 L 899.0 338.0 L 899.0 336.0 L 902.0 329.0 L 904.0 329.0 L 905.0 330.0 L 906.0 335.0 L 908.0 338.0 L 908.0 341.0 L 909.0 342.0 L 910.0 347.0 L 911.0 348.0 L 914.0 348.0 L 915.0 347.0 L 915.0 345.0 L 916.0 344.0 L 916.0 342.0 L 917.0 341.0 L 917.0 339.0 L 920.0 332.0 L 920.0 329.0 L 921.0 328.0 L 921.0 326.0 L 922.0 325.0 L 924.0 318.0 L 920.0 318.0 L 919.0 319.0 L 918.0 326.0 L 917.0 327.0 L 917.0 329.0 L 916.0 330.0 L 916.0 332.0 L 913.0 339.0 L 912.0 339.0 L 910.0 336.0 L 910.0 334.0 L 909.0 333.0 L 909.0 331.0 L 908.0 330.0 L 908.0 328.0 L 907.0 327.0 L 907.0 325.0 L 904.0 318.0 L 902.0 318.0 L 901.0 319.0 L 901.0 321.0 L 900.0 322.0 L 900.0 324.0 L 899.0 325.0 L 899.0 327.0 L 896.0 334.0 L 896.0 337.0 L 895.0 338.0 L 894.0 338.0 L 892.0 336.0 L 892.0 334.0 L 891.0 333.0 L 887.0 319.0 L 886.0 318.0 Z
    M 823.0 318.0 L 822.0 319.0 L 820.0 319.0 L 814.0 324.0 L 812.0 328.0 L 812.0 338.0 L 814.0 342.0 L 818.0 346.0 L 822.0 347.0 L 823.0 348.0 L 831.0 348.0 L 838.0 344.0 L 838.0 342.0 L 836.0 341.0 L 832.0 344.0 L 830.0 344.0 L 829.0 345.0 L 825.0 345.0 L 821.0 343.0 L 816.0 337.0 L 816.0 329.0 L 821.0 323.0 L 825.0 321.0 L 829.0 321.0 L 833.0 323.0 L 835.0 325.0 L 836.0 325.0 L 838.0 323.0 L 838.0 322.0 L 831.0 318.0 Z
    M 787.0 318.0 L 786.0 319.0 L 786.0 347.0 L 787.0 348.0 L 790.0 348.0 L 790.0 318.0 Z
    M 748.0 318.0 L 744.0 320.0 L 738.0 327.0 L 738.0 329.0 L 737.0 330.0 L 737.0 336.0 L 738.0 337.0 L 738.0 339.0 L 741.0 344.0 L 748.0 348.0 L 757.0 348.0 L 758.0 347.0 L 760.0 347.0 L 765.0 344.0 L 764.0 333.0 L 754.0 333.0 L 754.0 336.0 L 760.0 336.0 L 761.0 337.0 L 761.0 341.0 L 758.0 344.0 L 756.0 344.0 L 755.0 345.0 L 751.0 345.0 L 750.0 344.0 L 746.0 343.0 L 742.0 338.0 L 742.0 336.0 L 741.0 335.0 L 742.0 328.0 L 746.0 323.0 L 750.0 322.0 L 751.0 321.0 L 754.0 321.0 L 760.0 324.0 L 762.0 324.0 L 763.0 323.0 L 763.0 322.0 L 759.0 319.0 L 757.0 319.0 L 756.0 318.0 Z
    M 698.0 318.0 L 697.0 319.0 L 697.0 323.0 L 698.0 324.0 L 698.0 329.0 L 697.0 330.0 L 697.0 334.0 L 698.0 335.0 L 698.0 348.0 L 718.0 348.0 L 719.0 347.0 L 719.0 345.0 L 703.0 345.0 L 702.0 344.0 L 702.0 340.0 L 701.0 339.0 L 701.0 336.0 L 703.0 334.0 L 716.0 334.0 L 716.0 331.0 L 703.0 331.0 L 702.0 330.0 L 702.0 322.0 L 703.0 321.0 L 718.0 321.0 L 718.0 318.0 Z
    M 655.0 318.0 L 655.0 321.0 L 663.0 321.0 L 664.0 322.0 L 664.0 347.0 L 665.0 348.0 L 667.0 348.0 L 668.0 347.0 L 668.0 322.0 L 669.0 321.0 L 677.0 321.0 L 677.0 318.0 Z
    M 624.0 318.0 L 617.0 332.0 L 617.0 334.0 L 612.0 343.0 L 611.0 348.0 L 614.0 348.0 L 618.0 341.0 L 632.0 341.0 L 634.0 343.0 L 635.0 347.0 L 636.0 348.0 L 640.0 348.0 L 638.0 344.0 L 638.0 342.0 L 633.0 333.0 L 633.0 331.0 L 629.0 324.0 L 629.0 322.0 L 627.0 318.0 Z
    M 569.0 318.0 L 569.0 347.0 L 570.0 348.0 L 572.0 348.0 L 573.0 347.0 L 573.0 338.0 L 575.0 336.0 L 580.0 336.0 L 583.0 339.0 L 587.0 346.0 L 589.0 348.0 L 592.0 348.0 L 591.0 344.0 L 586.0 337.0 L 586.0 336.0 L 592.0 331.0 L 592.0 324.0 L 591.0 322.0 L 589.0 320.0 L 585.0 319.0 L 584.0 318.0 Z
    M 526.0 318.0 L 526.0 321.0 L 534.0 321.0 L 535.0 322.0 L 535.0 347.0 L 536.0 348.0 L 539.0 348.0 L 539.0 323.0 L 541.0 321.0 L 547.0 321.0 L 548.0 322.0 L 549.0 321.0 L 549.0 318.0 Z
    M 493.0 318.0 L 489.0 320.0 L 487.0 322.0 L 486.0 324.0 L 486.0 328.0 L 489.0 332.0 L 493.0 334.0 L 499.0 335.0 L 503.0 339.0 L 503.0 341.0 L 499.0 345.0 L 494.0 345.0 L 488.0 342.0 L 486.0 343.0 L 486.0 345.0 L 489.0 347.0 L 492.0 347.0 L 493.0 348.0 L 499.0 348.0 L 500.0 347.0 L 504.0 346.0 L 507.0 343.0 L 507.0 337.0 L 505.0 334.0 L 501.0 332.0 L 493.0 330.0 L 490.0 327.0 L 490.0 325.0 L 491.0 323.0 L 494.0 321.0 L 499.0 321.0 L 502.0 323.0 L 504.0 323.0 L 505.0 321.0 L 503.0 319.0 L 501.0 319.0 L 500.0 318.0 Z
    M 565.0 120.0 L 566.0 120.0 L 568.0 123.0 L 568.0 125.0 L 570.0 128.0 L 571.0 133.0 L 574.0 138.0 L 575.0 143.0 L 578.0 148.0 L 579.0 153.0 L 582.0 158.0 L 583.0 163.0 L 586.0 168.0 L 586.0 170.0 L 591.0 180.0 L 592.0 185.0 L 594.0 188.0 L 594.0 191.0 L 593.0 192.0 L 538.0 192.0 L 537.0 191.0 L 538.0 187.0 L 540.0 184.0 L 540.0 182.0 L 542.0 179.0 L 543.0 174.0 L 545.0 171.0 L 545.0 169.0 L 547.0 166.0 L 547.0 164.0 L 550.0 159.0 L 551.0 154.0 L 555.0 146.0 L 556.0 141.0 L 559.0 136.0 L 560.0 131.0 L 562.0 128.0 L 562.0 126.0 Z
    M 1301.0 93.0 L 1301.0 96.0 L 1303.0 97.0 L 1311.0 98.0 L 1315.0 100.0 L 1320.0 105.0 L 1320.0 108.0 L 1321.0 109.0 L 1321.0 239.0 L 1320.0 240.0 L 1320.0 244.0 L 1316.0 249.0 L 1309.0 252.0 L 1302.0 253.0 L 1301.0 254.0 L 1301.0 257.0 L 1364.0 257.0 L 1364.0 253.0 L 1359.0 253.0 L 1358.0 252.0 L 1355.0 252.0 L 1354.0 251.0 L 1349.0 250.0 L 1345.0 246.0 L 1344.0 242.0 L 1343.0 241.0 L 1343.0 108.0 L 1344.0 107.0 L 1344.0 105.0 L 1349.0 100.0 L 1353.0 99.0 L 1354.0 98.0 L 1357.0 98.0 L 1358.0 97.0 L 1364.0 96.0 L 1364.0 93.0 Z
    M 765.0 93.0 L 765.0 96.0 L 767.0 97.0 L 772.0 97.0 L 773.0 98.0 L 777.0 99.0 L 782.0 104.0 L 782.0 106.0 L 783.0 107.0 L 783.0 243.0 L 777.0 250.0 L 770.0 252.0 L 769.0 253.0 L 765.0 253.0 L 765.0 257.0 L 891.0 257.0 L 892.0 256.0 L 892.0 250.0 L 893.0 249.0 L 894.0 238.0 L 895.0 237.0 L 896.0 227.0 L 897.0 226.0 L 897.0 222.0 L 894.0 221.0 L 891.0 228.0 L 889.0 230.0 L 886.0 236.0 L 879.0 243.0 L 871.0 247.0 L 867.0 247.0 L 866.0 248.0 L 847.0 248.0 L 846.0 249.0 L 815.0 249.0 L 814.0 248.0 L 810.0 248.0 L 806.0 243.0 L 806.0 178.0 L 807.0 177.0 L 809.0 177.0 L 810.0 176.0 L 849.0 176.0 L 850.0 177.0 L 854.0 177.0 L 858.0 179.0 L 860.0 181.0 L 863.0 186.0 L 865.0 193.0 L 866.0 194.0 L 868.0 193.0 L 868.0 150.0 L 865.0 150.0 L 863.0 157.0 L 860.0 162.0 L 857.0 165.0 L 853.0 167.0 L 837.0 167.0 L 836.0 168.0 L 809.0 168.0 L 806.0 166.0 L 806.0 104.0 L 809.0 101.0 L 859.0 101.0 L 860.0 102.0 L 864.0 102.0 L 865.0 103.0 L 869.0 104.0 L 874.0 108.0 L 879.0 117.0 L 881.0 125.0 L 882.0 126.0 L 885.0 126.0 L 885.0 113.0 L 884.0 112.0 L 884.0 93.0 Z
    M 567.0 92.0 L 566.0 96.0 L 564.0 99.0 L 563.0 104.0 L 558.0 114.0 L 557.0 119.0 L 555.0 122.0 L 555.0 124.0 L 553.0 127.0 L 553.0 129.0 L 549.0 137.0 L 549.0 139.0 L 546.0 144.0 L 544.0 151.0 L 541.0 156.0 L 541.0 158.0 L 537.0 166.0 L 536.0 171.0 L 530.0 183.0 L 530.0 185.0 L 528.0 188.0 L 526.0 195.0 L 523.0 200.0 L 523.0 202.0 L 521.0 205.0 L 520.0 210.0 L 518.0 213.0 L 516.0 220.0 L 512.0 227.0 L 512.0 229.0 L 509.0 234.0 L 509.0 236.0 L 505.0 243.0 L 500.0 248.0 L 490.0 253.0 L 487.0 253.0 L 486.0 254.0 L 486.0 257.0 L 532.0 257.0 L 532.0 254.0 L 531.0 253.0 L 528.0 253.0 L 525.0 251.0 L 521.0 250.0 L 518.0 247.0 L 517.0 242.0 L 518.0 241.0 L 518.0 238.0 L 520.0 235.0 L 521.0 230.0 L 525.0 222.0 L 526.0 217.0 L 530.0 209.0 L 531.0 204.0 L 535.0 196.0 L 596.0 196.0 L 598.0 199.0 L 598.0 201.0 L 600.0 204.0 L 600.0 206.0 L 602.0 209.0 L 602.0 211.0 L 604.0 214.0 L 605.0 219.0 L 607.0 222.0 L 607.0 224.0 L 609.0 227.0 L 609.0 229.0 L 611.0 232.0 L 611.0 234.0 L 613.0 237.0 L 613.0 239.0 L 615.0 243.0 L 615.0 246.0 L 611.0 251.0 L 607.0 252.0 L 606.0 253.0 L 602.0 253.0 L 601.0 254.0 L 601.0 256.0 L 602.0 257.0 L 657.0 257.0 L 657.0 253.0 L 654.0 253.0 L 651.0 251.0 L 647.0 250.0 L 639.0 243.0 L 637.0 239.0 L 637.0 237.0 L 634.0 232.0 L 634.0 230.0 L 631.0 225.0 L 631.0 223.0 L 627.0 216.0 L 627.0 214.0 L 625.0 211.0 L 623.0 204.0 L 620.0 199.0 L 620.0 197.0 L 616.0 190.0 L 616.0 188.0 L 614.0 185.0 L 614.0 183.0 L 612.0 180.0 L 610.0 173.0 L 607.0 168.0 L 605.0 161.0 L 602.0 156.0 L 600.0 149.0 L 597.0 144.0 L 597.0 142.0 L 595.0 139.0 L 593.0 132.0 L 590.0 127.0 L 588.0 120.0 L 585.0 115.0 L 585.0 113.0 L 583.0 110.0 L 583.0 108.0 L 579.0 100.0 L 578.0 95.0 L 576.0 92.0 Z
    M 1540.0 89.0 L 1539.0 90.0 L 1535.0 90.0 L 1534.0 91.0 L 1531.0 91.0 L 1530.0 92.0 L 1525.0 93.0 L 1517.0 97.0 L 1510.0 103.0 L 1509.0 103.0 L 1504.0 109.0 L 1500.0 116.0 L 1500.0 118.0 L 1498.0 122.0 L 1498.0 126.0 L 1497.0 127.0 L 1497.0 140.0 L 1498.0 141.0 L 1498.0 144.0 L 1499.0 145.0 L 1500.0 150.0 L 1504.0 157.0 L 1514.0 167.0 L 1515.0 167.0 L 1518.0 170.0 L 1524.0 173.0 L 1526.0 175.0 L 1531.0 177.0 L 1533.0 179.0 L 1550.0 187.0 L 1552.0 189.0 L 1562.0 194.0 L 1573.0 204.0 L 1574.0 207.0 L 1576.0 209.0 L 1576.0 211.0 L 1578.0 215.0 L 1578.0 218.0 L 1579.0 219.0 L 1579.0 226.0 L 1578.0 227.0 L 1578.0 231.0 L 1574.0 239.0 L 1563.0 249.0 L 1559.0 250.0 L 1558.0 251.0 L 1555.0 251.0 L 1554.0 252.0 L 1549.0 252.0 L 1548.0 253.0 L 1538.0 253.0 L 1537.0 252.0 L 1533.0 252.0 L 1532.0 251.0 L 1529.0 251.0 L 1528.0 250.0 L 1523.0 249.0 L 1516.0 245.0 L 1505.0 233.0 L 1499.0 221.0 L 1497.0 214.0 L 1494.0 214.0 L 1493.0 216.0 L 1494.0 217.0 L 1494.0 228.0 L 1495.0 229.0 L 1495.0 238.0 L 1496.0 239.0 L 1497.0 252.0 L 1503.0 253.0 L 1507.0 255.0 L 1510.0 255.0 L 1514.0 257.0 L 1524.0 258.0 L 1525.0 259.0 L 1531.0 259.0 L 1532.0 260.0 L 1553.0 260.0 L 1554.0 259.0 L 1560.0 259.0 L 1561.0 258.0 L 1564.0 258.0 L 1565.0 257.0 L 1570.0 256.0 L 1582.0 250.0 L 1592.0 240.0 L 1598.0 228.0 L 1598.0 225.0 L 1599.0 224.0 L 1599.0 219.0 L 1600.0 218.0 L 1600.0 209.0 L 1599.0 208.0 L 1598.0 200.0 L 1594.0 192.0 L 1583.0 180.0 L 1582.0 180.0 L 1579.0 177.0 L 1576.0 176.0 L 1574.0 174.0 L 1571.0 173.0 L 1569.0 171.0 L 1564.0 169.0 L 1562.0 167.0 L 1538.0 155.0 L 1532.0 150.0 L 1531.0 150.0 L 1527.0 146.0 L 1526.0 146.0 L 1521.0 140.0 L 1517.0 132.0 L 1517.0 127.0 L 1516.0 126.0 L 1516.0 124.0 L 1517.0 123.0 L 1517.0 117.0 L 1519.0 114.0 L 1520.0 110.0 L 1529.0 101.0 L 1533.0 99.0 L 1538.0 98.0 L 1539.0 97.0 L 1544.0 97.0 L 1545.0 96.0 L 1551.0 96.0 L 1552.0 97.0 L 1557.0 97.0 L 1558.0 98.0 L 1561.0 98.0 L 1568.0 101.0 L 1570.0 103.0 L 1574.0 105.0 L 1577.0 108.0 L 1582.0 116.0 L 1582.0 118.0 L 1584.0 121.0 L 1584.0 123.0 L 1586.0 127.0 L 1586.0 130.0 L 1589.0 130.0 L 1590.0 129.0 L 1589.0 127.0 L 1588.0 96.0 L 1584.0 95.0 L 1583.0 94.0 L 1580.0 94.0 L 1579.0 93.0 L 1575.0 93.0 L 1574.0 92.0 L 1567.0 91.0 L 1566.0 90.0 L 1560.0 90.0 L 1559.0 89.0 Z
    M 1040.0 114.0 L 1031.0 124.0 L 1031.0 125.0 L 1025.0 133.0 L 1021.0 141.0 L 1021.0 143.0 L 1019.0 146.0 L 1019.0 148.0 L 1017.0 152.0 L 1016.0 160.0 L 1015.0 161.0 L 1015.0 167.0 L 1014.0 168.0 L 1014.0 185.0 L 1015.0 186.0 L 1015.0 193.0 L 1016.0 194.0 L 1017.0 202.0 L 1018.0 203.0 L 1020.0 211.0 L 1025.0 221.0 L 1027.0 223.0 L 1031.0 230.0 L 1044.0 242.0 L 1045.0 242.0 L 1050.0 246.0 L 1053.0 247.0 L 1055.0 249.0 L 1057.0 249.0 L 1062.0 252.0 L 1064.0 252.0 L 1065.0 253.0 L 1067.0 253.0 L 1068.0 254.0 L 1070.0 254.0 L 1077.0 257.0 L 1080.0 257.0 L 1081.0 258.0 L 1086.0 258.0 L 1087.0 259.0 L 1094.0 259.0 L 1095.0 260.0 L 1121.0 260.0 L 1122.0 259.0 L 1128.0 259.0 L 1129.0 258.0 L 1135.0 258.0 L 1136.0 257.0 L 1144.0 256.0 L 1145.0 255.0 L 1147.0 255.0 L 1148.0 254.0 L 1162.0 250.0 L 1165.0 248.0 L 1167.0 248.0 L 1168.0 247.0 L 1168.0 201.0 L 1167.0 200.0 L 1168.0 198.0 L 1168.0 195.0 L 1170.0 191.0 L 1172.0 189.0 L 1178.0 186.0 L 1185.0 185.0 L 1186.0 184.0 L 1186.0 182.0 L 1185.0 181.0 L 1118.0 181.0 L 1118.0 184.0 L 1119.0 185.0 L 1124.0 185.0 L 1125.0 186.0 L 1130.0 186.0 L 1131.0 187.0 L 1137.0 188.0 L 1144.0 194.0 L 1144.0 196.0 L 1145.0 197.0 L 1145.0 243.0 L 1143.0 245.0 L 1133.0 250.0 L 1130.0 250.0 L 1129.0 251.0 L 1126.0 251.0 L 1125.0 252.0 L 1118.0 252.0 L 1117.0 253.0 L 1103.0 253.0 L 1102.0 252.0 L 1097.0 252.0 L 1096.0 251.0 L 1089.0 250.0 L 1088.0 249.0 L 1086.0 249.0 L 1085.0 248.0 L 1083.0 248.0 L 1076.0 245.0 L 1074.0 243.0 L 1070.0 241.0 L 1066.0 237.0 L 1065.0 237.0 L 1054.0 225.0 L 1046.0 211.0 L 1046.0 209.0 L 1044.0 206.0 L 1044.0 204.0 L 1042.0 200.0 L 1042.0 196.0 L 1040.0 192.0 L 1040.0 185.0 L 1039.0 184.0 L 1039.0 163.0 L 1040.0 162.0 L 1040.0 155.0 L 1041.0 154.0 L 1041.0 150.0 L 1042.0 149.0 L 1042.0 146.0 L 1043.0 145.0 L 1045.0 137.0 L 1054.0 121.0 L 1069.0 107.0 L 1083.0 100.0 L 1086.0 100.0 L 1087.0 99.0 L 1090.0 99.0 L 1091.0 98.0 L 1095.0 98.0 L 1096.0 97.0 L 1102.0 97.0 L 1103.0 96.0 L 1113.0 96.0 L 1114.0 97.0 L 1122.0 97.0 L 1123.0 98.0 L 1131.0 99.0 L 1144.0 105.0 L 1151.0 110.0 L 1151.0 111.0 L 1154.0 114.0 L 1157.0 119.0 L 1157.0 121.0 L 1158.0 122.0 L 1158.0 124.0 L 1160.0 127.0 L 1161.0 131.0 L 1163.0 132.0 L 1164.0 131.0 L 1164.0 99.0 L 1163.0 98.0 L 1161.0 98.0 L 1157.0 96.0 L 1154.0 96.0 L 1150.0 94.0 L 1147.0 94.0 L 1146.0 93.0 L 1143.0 93.0 L 1142.0 92.0 L 1138.0 92.0 L 1137.0 91.0 L 1132.0 91.0 L 1131.0 90.0 L 1124.0 90.0 L 1123.0 89.0 L 1097.0 89.0 L 1096.0 90.0 L 1089.0 90.0 L 1088.0 91.0 L 1080.0 92.0 L 1079.0 93.0 L 1074.0 94.0 L 1071.0 96.0 L 1066.0 97.0 L 1056.0 102.0 L 1054.0 104.0 L 1047.0 108.0 L 1041.0 114.0 Z
    M 205.0 18.0 L 204.0 24.0 L 201.0 31.0 L 201.0 34.0 L 200.0 35.0 L 200.0 37.0 L 197.0 44.0 L 197.0 47.0 L 196.0 48.0 L 196.0 50.0 L 194.0 54.0 L 194.0 57.0 L 192.0 61.0 L 192.0 64.0 L 190.0 68.0 L 190.0 71.0 L 188.0 75.0 L 188.0 78.0 L 187.0 79.0 L 186.0 84.0 L 184.0 87.0 L 184.0 90.0 L 181.0 97.0 L 181.0 100.0 L 180.0 101.0 L 180.0 103.0 L 177.0 110.0 L 176.0 117.0 L 175.0 118.0 L 175.0 120.0 L 174.0 121.0 L 174.0 123.0 L 173.0 124.0 L 173.0 126.0 L 172.0 127.0 L 172.0 129.0 L 171.0 130.0 L 171.0 132.0 L 170.0 133.0 L 170.0 135.0 L 167.0 142.0 L 167.0 145.0 L 166.0 146.0 L 166.0 148.0 L 165.0 149.0 L 165.0 151.0 L 164.0 152.0 L 164.0 154.0 L 163.0 155.0 L 163.0 157.0 L 162.0 158.0 L 162.0 160.0 L 161.0 161.0 L 161.0 163.0 L 160.0 164.0 L 160.0 166.0 L 159.0 167.0 L 159.0 169.0 L 156.0 176.0 L 156.0 179.0 L 155.0 180.0 L 155.0 182.0 L 154.0 183.0 L 154.0 185.0 L 153.0 186.0 L 153.0 188.0 L 152.0 189.0 L 152.0 191.0 L 151.0 192.0 L 151.0 194.0 L 148.0 201.0 L 148.0 204.0 L 147.0 205.0 L 147.0 207.0 L 146.0 208.0 L 146.0 210.0 L 145.0 211.0 L 145.0 213.0 L 142.0 220.0 L 142.0 223.0 L 140.0 226.0 L 140.0 229.0 L 139.0 230.0 L 139.0 232.0 L 138.0 233.0 L 138.0 235.0 L 135.0 242.0 L 135.0 245.0 L 134.0 246.0 L 132.0 254.0 L 130.0 256.0 L 128.0 255.0 L 128.0 253.0 L 127.0 252.0 L 127.0 250.0 L 126.0 249.0 L 126.0 247.0 L 125.0 246.0 L 121.0 232.0 L 119.0 229.0 L 119.0 227.0 L 118.0 226.0 L 115.0 215.0 L 113.0 212.0 L 113.0 210.0 L 112.0 209.0 L 112.0 207.0 L 111.0 206.0 L 111.0 204.0 L 110.0 203.0 L 110.0 201.0 L 109.0 200.0 L 105.0 186.0 L 103.0 183.0 L 102.0 177.0 L 100.0 174.0 L 99.0 168.0 L 98.0 167.0 L 94.0 153.0 L 92.0 152.0 L 90.0 159.0 L 89.0 160.0 L 89.0 162.0 L 87.0 165.0 L 85.0 173.0 L 83.0 176.0 L 82.0 182.0 L 80.0 185.0 L 78.0 193.0 L 76.0 196.0 L 72.0 210.0 L 70.0 213.0 L 68.0 221.0 L 66.0 224.0 L 63.0 235.0 L 61.0 238.0 L 61.0 240.0 L 60.0 241.0 L 60.0 243.0 L 59.0 244.0 L 59.0 246.0 L 58.0 247.0 L 54.0 261.0 L 52.0 264.0 L 50.0 272.0 L 48.0 275.0 L 48.0 278.0 L 46.0 281.0 L 46.0 283.0 L 45.0 284.0 L 45.0 286.0 L 44.0 287.0 L 44.0 289.0 L 43.0 290.0 L 43.0 292.0 L 42.0 293.0 L 42.0 295.0 L 41.0 296.0 L 41.0 298.0 L 40.0 299.0 L 40.0 301.0 L 39.0 302.0 L 39.0 304.0 L 38.0 305.0 L 38.0 307.0 L 37.0 308.0 L 37.0 310.0 L 36.0 311.0 L 36.0 313.0 L 35.0 314.0 L 35.0 316.0 L 34.0 317.0 L 34.0 319.0 L 33.0 320.0 L 29.0 334.0 L 27.0 337.0 L 26.0 341.0 L 18.0 349.0 L 18.0 351.0 L 22.0 351.0 L 23.0 352.0 L 25.0 352.0 L 26.0 351.0 L 36.0 351.0 L 37.0 352.0 L 57.0 351.0 L 57.0 349.0 L 47.0 340.0 L 47.0 336.0 L 48.0 335.0 L 48.0 332.0 L 49.0 331.0 L 49.0 329.0 L 50.0 328.0 L 54.0 314.0 L 57.0 308.0 L 58.0 302.0 L 60.0 299.0 L 64.0 285.0 L 66.0 282.0 L 67.0 276.0 L 69.0 273.0 L 69.0 271.0 L 70.0 270.0 L 70.0 268.0 L 71.0 267.0 L 75.0 253.0 L 77.0 250.0 L 77.0 248.0 L 78.0 247.0 L 78.0 245.0 L 79.0 244.0 L 79.0 242.0 L 80.0 241.0 L 80.0 239.0 L 81.0 238.0 L 85.0 224.0 L 87.0 221.0 L 87.0 218.0 L 88.0 217.0 L 90.0 209.0 L 92.0 207.0 L 94.0 208.0 L 94.0 210.0 L 96.0 214.0 L 96.0 217.0 L 97.0 218.0 L 101.0 232.0 L 103.0 235.0 L 104.0 241.0 L 105.0 242.0 L 106.0 247.0 L 108.0 250.0 L 109.0 256.0 L 111.0 259.0 L 112.0 265.0 L 113.0 266.0 L 116.0 277.0 L 118.0 280.0 L 118.0 282.0 L 120.0 286.0 L 120.0 291.0 L 119.0 292.0 L 119.0 294.0 L 118.0 295.0 L 118.0 297.0 L 117.0 298.0 L 117.0 300.0 L 116.0 301.0 L 116.0 303.0 L 115.0 304.0 L 115.0 306.0 L 112.0 313.0 L 112.0 316.0 L 111.0 317.0 L 111.0 319.0 L 110.0 320.0 L 110.0 322.0 L 109.0 323.0 L 105.0 337.0 L 101.0 345.0 L 96.0 351.0 L 165.0 351.0 L 164.0 348.0 L 158.0 341.0 L 156.0 337.0 L 156.0 335.0 L 155.0 334.0 L 154.0 329.0 L 152.0 326.0 L 151.0 321.0 L 149.0 318.0 L 149.0 316.0 L 148.0 315.0 L 148.0 313.0 L 147.0 312.0 L 147.0 310.0 L 146.0 309.0 L 146.0 307.0 L 145.0 306.0 L 145.0 304.0 L 144.0 303.0 L 140.0 289.0 L 141.0 288.0 L 141.0 285.0 L 143.0 281.0 L 143.0 278.0 L 144.0 277.0 L 144.0 275.0 L 145.0 274.0 L 145.0 272.0 L 148.0 265.0 L 148.0 262.0 L 149.0 261.0 L 149.0 259.0 L 150.0 258.0 L 150.0 256.0 L 151.0 255.0 L 151.0 253.0 L 152.0 252.0 L 152.0 250.0 L 155.0 243.0 L 155.0 240.0 L 156.0 239.0 L 156.0 237.0 L 158.0 233.0 L 158.0 230.0 L 159.0 229.0 L 159.0 227.0 L 162.0 220.0 L 162.0 217.0 L 163.0 216.0 L 163.0 214.0 L 164.0 213.0 L 164.0 211.0 L 165.0 210.0 L 165.0 208.0 L 166.0 207.0 L 166.0 205.0 L 167.0 204.0 L 167.0 202.0 L 168.0 201.0 L 168.0 199.0 L 169.0 198.0 L 169.0 196.0 L 170.0 195.0 L 170.0 193.0 L 171.0 192.0 L 171.0 190.0 L 172.0 189.0 L 172.0 187.0 L 175.0 180.0 L 175.0 177.0 L 176.0 176.0 L 176.0 174.0 L 177.0 173.0 L 177.0 171.0 L 178.0 170.0 L 178.0 168.0 L 179.0 167.0 L 179.0 165.0 L 182.0 158.0 L 182.0 155.0 L 183.0 154.0 L 183.0 152.0 L 184.0 151.0 L 184.0 149.0 L 185.0 148.0 L 185.0 146.0 L 188.0 139.0 L 188.0 136.0 L 189.0 135.0 L 189.0 133.0 L 190.0 132.0 L 190.0 130.0 L 193.0 123.0 L 193.0 120.0 L 195.0 116.0 L 196.0 109.0 L 197.0 108.0 L 197.0 106.0 L 199.0 102.0 L 199.0 99.0 L 202.0 92.0 L 202.0 89.0 L 205.0 82.0 L 207.0 83.0 L 207.0 85.0 L 210.0 92.0 L 211.0 99.0 L 212.0 100.0 L 212.0 102.0 L 214.0 106.0 L 214.0 109.0 L 215.0 110.0 L 215.0 112.0 L 218.0 119.0 L 218.0 122.0 L 219.0 123.0 L 219.0 125.0 L 220.0 126.0 L 220.0 128.0 L 221.0 129.0 L 221.0 131.0 L 224.0 138.0 L 224.0 141.0 L 225.0 142.0 L 225.0 144.0 L 228.0 151.0 L 228.0 154.0 L 229.0 155.0 L 229.0 157.0 L 230.0 158.0 L 230.0 160.0 L 231.0 161.0 L 231.0 163.0 L 232.0 164.0 L 232.0 166.0 L 233.0 167.0 L 233.0 169.0 L 234.0 170.0 L 238.0 184.0 L 240.0 187.0 L 240.0 190.0 L 241.0 191.0 L 241.0 193.0 L 242.0 194.0 L 242.0 196.0 L 243.0 197.0 L 243.0 199.0 L 244.0 200.0 L 244.0 202.0 L 247.0 209.0 L 247.0 212.0 L 248.0 213.0 L 248.0 215.0 L 249.0 216.0 L 249.0 218.0 L 250.0 219.0 L 250.0 221.0 L 251.0 222.0 L 251.0 224.0 L 252.0 225.0 L 252.0 227.0 L 255.0 234.0 L 255.0 237.0 L 256.0 238.0 L 256.0 240.0 L 258.0 244.0 L 258.0 247.0 L 259.0 248.0 L 259.0 250.0 L 262.0 257.0 L 262.0 260.0 L 263.0 261.0 L 264.0 267.0 L 267.0 274.0 L 267.0 277.0 L 268.0 278.0 L 268.0 280.0 L 271.0 287.0 L 271.0 290.0 L 270.0 291.0 L 267.0 302.0 L 265.0 305.0 L 265.0 307.0 L 264.0 308.0 L 264.0 310.0 L 263.0 311.0 L 259.0 325.0 L 257.0 328.0 L 254.0 339.0 L 250.0 344.0 L 250.0 345.0 L 246.0 349.0 L 246.0 351.0 L 247.0 352.0 L 249.0 352.0 L 250.0 351.0 L 282.0 351.0 L 283.0 352.0 L 314.0 351.0 L 312.0 347.0 L 309.0 344.0 L 305.0 336.0 L 305.0 334.0 L 302.0 328.0 L 301.0 322.0 L 299.0 319.0 L 298.0 313.0 L 297.0 312.0 L 297.0 310.0 L 296.0 309.0 L 296.0 307.0 L 293.0 300.0 L 293.0 297.0 L 290.0 290.0 L 290.0 287.0 L 293.0 280.0 L 293.0 277.0 L 295.0 274.0 L 296.0 268.0 L 299.0 262.0 L 300.0 256.0 L 302.0 253.0 L 302.0 251.0 L 303.0 250.0 L 303.0 248.0 L 304.0 247.0 L 304.0 245.0 L 305.0 244.0 L 305.0 242.0 L 308.0 235.0 L 308.0 232.0 L 311.0 225.0 L 311.0 222.0 L 312.0 221.0 L 315.0 210.0 L 317.0 207.0 L 318.0 207.0 L 320.0 209.0 L 320.0 211.0 L 321.0 212.0 L 321.0 214.0 L 322.0 215.0 L 326.0 229.0 L 328.0 232.0 L 330.0 240.0 L 332.0 243.0 L 334.0 251.0 L 336.0 254.0 L 336.0 257.0 L 338.0 260.0 L 338.0 262.0 L 339.0 263.0 L 339.0 265.0 L 340.0 266.0 L 344.0 280.0 L 346.0 283.0 L 348.0 291.0 L 350.0 294.0 L 351.0 299.0 L 353.0 302.0 L 353.0 304.0 L 354.0 305.0 L 354.0 307.0 L 355.0 308.0 L 355.0 310.0 L 356.0 311.0 L 356.0 313.0 L 357.0 314.0 L 357.0 316.0 L 358.0 317.0 L 358.0 319.0 L 359.0 320.0 L 359.0 322.0 L 360.0 323.0 L 360.0 325.0 L 361.0 326.0 L 361.0 328.0 L 364.0 335.0 L 364.0 341.0 L 360.0 345.0 L 354.0 349.0 L 354.0 351.0 L 361.0 351.0 L 362.0 352.0 L 384.0 352.0 L 385.0 351.0 L 394.0 351.0 L 394.0 348.0 L 391.0 345.0 L 387.0 343.0 L 385.0 341.0 L 383.0 337.0 L 383.0 335.0 L 380.0 329.0 L 376.0 315.0 L 373.0 309.0 L 373.0 306.0 L 371.0 303.0 L 371.0 301.0 L 370.0 300.0 L 370.0 298.0 L 367.0 291.0 L 367.0 288.0 L 366.0 287.0 L 365.0 282.0 L 361.0 274.0 L 357.0 260.0 L 355.0 257.0 L 352.0 246.0 L 350.0 243.0 L 347.0 232.0 L 345.0 229.0 L 345.0 227.0 L 344.0 226.0 L 343.0 221.0 L 341.0 218.0 L 341.0 216.0 L 340.0 215.0 L 338.0 207.0 L 336.0 204.0 L 335.0 199.0 L 331.0 191.0 L 331.0 189.0 L 330.0 188.0 L 328.0 180.0 L 326.0 177.0 L 326.0 175.0 L 325.0 174.0 L 325.0 172.0 L 324.0 171.0 L 324.0 169.0 L 323.0 168.0 L 323.0 166.0 L 322.0 165.0 L 322.0 163.0 L 321.0 162.0 L 321.0 160.0 L 320.0 159.0 L 318.0 152.0 L 317.0 152.0 L 315.0 155.0 L 315.0 158.0 L 313.0 161.0 L 313.0 163.0 L 312.0 164.0 L 312.0 166.0 L 311.0 167.0 L 311.0 169.0 L 310.0 170.0 L 310.0 172.0 L 309.0 173.0 L 309.0 175.0 L 308.0 176.0 L 308.0 178.0 L 307.0 179.0 L 307.0 181.0 L 306.0 182.0 L 306.0 184.0 L 305.0 185.0 L 301.0 199.0 L 299.0 202.0 L 299.0 204.0 L 298.0 205.0 L 298.0 207.0 L 295.0 214.0 L 295.0 217.0 L 293.0 220.0 L 292.0 226.0 L 291.0 227.0 L 291.0 229.0 L 290.0 230.0 L 286.0 244.0 L 284.0 247.0 L 283.0 252.0 L 281.0 255.0 L 279.0 254.0 L 278.0 248.0 L 276.0 244.0 L 276.0 241.0 L 274.0 237.0 L 274.0 234.0 L 273.0 233.0 L 273.0 231.0 L 272.0 230.0 L 272.0 228.0 L 269.0 221.0 L 269.0 218.0 L 268.0 217.0 L 268.0 215.0 L 267.0 214.0 L 267.0 212.0 L 266.0 211.0 L 266.0 209.0 L 265.0 208.0 L 265.0 206.0 L 264.0 205.0 L 264.0 203.0 L 261.0 196.0 L 261.0 193.0 L 260.0 192.0 L 260.0 190.0 L 259.0 189.0 L 259.0 187.0 L 258.0 186.0 L 258.0 184.0 L 255.0 177.0 L 255.0 174.0 L 254.0 173.0 L 254.0 171.0 L 253.0 170.0 L 253.0 168.0 L 252.0 167.0 L 252.0 165.0 L 251.0 164.0 L 251.0 162.0 L 250.0 161.0 L 250.0 159.0 L 247.0 152.0 L 247.0 149.0 L 245.0 146.0 L 245.0 144.0 L 244.0 143.0 L 244.0 141.0 L 243.0 140.0 L 243.0 138.0 L 240.0 131.0 L 240.0 128.0 L 239.0 127.0 L 239.0 125.0 L 238.0 124.0 L 238.0 122.0 L 237.0 121.0 L 237.0 119.0 L 236.0 118.0 L 236.0 116.0 L 235.0 115.0 L 235.0 113.0 L 232.0 106.0 L 232.0 103.0 L 229.0 96.0 L 229.0 93.0 L 228.0 92.0 L 228.0 90.0 L 227.0 89.0 L 227.0 87.0 L 226.0 86.0 L 226.0 84.0 L 225.0 83.0 L 225.0 81.0 L 222.0 74.0 L 222.0 71.0 L 221.0 70.0 L 221.0 68.0 L 218.0 61.0 L 218.0 58.0 L 217.0 57.0 L 217.0 55.0 L 214.0 48.0 L 214.0 45.0 L 213.0 44.0 L 213.0 42.0 L 210.0 35.0 L 210.0 32.0 L 207.0 25.0 L 206.0 18.0 Z" fill="url(#aegisGold)" fill-rule="evenodd"/>
</svg>
